<svg width="60" height="60" viewBox="0 0 60 60" fill="none" xmlns="http://www.w3.org/2000/svg">
<path d="M15 35C15.7911 35 16.5645 34.7654 17.2223 34.3259C17.8801 33.8864 18.3928 33.2616 18.6955 32.5307C18.9983 31.7998 19.0775 30.9956 18.9231 30.2196C18.7688 29.4437 18.3878 28.731 17.8284 28.1716C17.269 27.6122 16.5563 27.2312 15.7804 27.0769C15.0044 26.9225 14.2002 27.0017 13.4693 27.3045C12.7384 27.6072 12.1136 28.1199 11.6741 28.7777C11.2346 29.4355 11 30.2089 11 31C11 32.0609 11.4214 33.0783 12.1716 33.8284C12.9217 34.5786 13.9391 35 15 35ZM15 29C15.3956 29 15.7822 29.1173 16.1111 29.3371C16.44 29.5568 16.6964 29.8692 16.8478 30.2346C16.9991 30.6001 17.0387 31.0022 16.9616 31.3902C16.8844 31.7781 16.6939 32.1345 16.4142 32.4142C16.1345 32.6939 15.7781 32.8844 15.3902 32.9616C15.0022 33.0387 14.6001 32.9991 14.2346 32.8478C13.8692 32.6964 13.5568 32.44 13.3371 32.1111C13.1173 31.7822 13 31.3956 13 31C13 30.4696 13.2107 29.9609 13.5858 29.5858C13.9609 29.2107 14.4696 29 15 29Z" fill="white"/>
<path d="M56 4H37V1C37 0.734784 36.8946 0.48043 36.7071 0.292894C36.5196 0.105358 36.2652 8.34814e-07 36 8.34814e-07H1C0.86827 -0.00147265 0.737572 0.0233868 0.615581 0.0731198C0.49359 0.122853 0.382764 0.196457 0.28961 0.28961C0.196457 0.382764 0.122853 0.49359 0.0731198 0.615581C0.0233868 0.737572 -0.00147265 0.86827 8.34814e-07 1V52C0.000160128 52.2098 0.0662971 52.4142 0.189051 52.5844C0.311804 52.7545 0.484957 52.8817 0.684001 52.948L21.684 59.948C21.7858 59.9825 21.8925 60.0001 22 60C22.2652 60 22.5196 59.8946 22.7071 59.7071C22.8946 59.5196 23 59.2652 23 59V53H26.556C26.9044 53.606 27.4059 54.1098 28.0104 54.4608C28.6149 54.8119 29.301 54.9978 30 55H56C57.0609 55 58.0783 54.5786 58.8284 53.8284C59.5786 53.0783 60 52.0609 60 51V41C60 39.9391 59.5786 38.9217 58.8284 38.1716C58.0783 37.4214 57.0609 37 56 37H39.3L37 35.465V27.535L39.3 26H56C57.0609 26 58.0783 25.5786 58.8284 24.8284C59.5786 24.0783 60 23.0609 60 22V8C60 6.93913 59.5786 5.92172 58.8284 5.17157C58.0783 4.42143 57.0609 4 56 4ZM58 8V12H28V8C28 7.46957 28.2107 6.96086 28.5858 6.58579C28.9609 6.21072 29.4696 6 30 6H56C56.5304 6 57.0391 6.21072 57.4142 6.58579C57.7893 6.96086 58 7.46957 58 8ZM21 57.612L2 51.279V2.388L21 8.721V57.612ZM39 39H56C56.5304 39 57.0391 39.2107 57.4142 39.5858C57.7893 39.9609 58 40.4696 58 41V51C58 51.5304 57.7893 52.0391 57.4142 52.4142C57.0391 52.7893 56.5304 53 56 53H30C29.4696 53 28.9609 52.7893 28.5858 52.4142C28.2107 52.0391 28 51.5304 28 51V41C28 40.4696 28.2107 39.9609 28.5858 39.5858C28.9609 39.2107 29.4696 39 30 39H33C33.2652 39 33.5196 38.8946 33.7071 38.7071C33.8946 38.5196 34 38.2652 34 38V35.868L38.445 38.832C38.6095 38.9413 38.8025 38.9997 39 39ZM35 34.132L33.555 33.168C33.4044 33.0675 33.2293 33.0098 33.0485 33.001C32.8677 32.9922 32.6879 33.0327 32.5282 33.1181C32.3686 33.2035 32.2352 33.3307 32.1421 33.486C32.0491 33.6413 32 33.819 32 34V37H30C28.9391 37 27.9217 37.4214 27.1716 38.1716C26.4214 38.9217 26 39.9391 26 41V51H23V8C22.9998 7.79021 22.9337 7.58578 22.8109 7.41564C22.6882 7.24551 22.515 7.1183 22.316 7.052L7.161 2H35V4H30C28.9391 4 27.9217 4.42143 27.1716 5.17157C26.4214 5.92172 26 6.93913 26 8V22C26 23.0609 26.4214 24.0783 27.1716 24.8284C27.9217 25.5786 28.9391 26 30 26H32V29C32 29.181 32.0491 29.3587 32.1421 29.514C32.2352 29.6693 32.3686 29.7965 32.5282 29.8819C32.6879 29.9673 32.8677 30.0078 33.0485 29.999C33.2293 29.9902 33.4044 29.9325 33.555 29.832L35 28.868V34.132ZM56 24H39C38.8025 24.0003 38.6095 24.0587 38.445 24.168L34 27.132V25C34 24.7348 33.8946 24.4804 33.7071 24.2929C33.5196 24.1054 33.2652 24 33 24H30C29.4696 24 28.9609 23.7893 28.5858 23.4142C28.2107 23.0391 28 22.5304 28 22V14H58V22C58 22.5304 57.7893 23.0391 57.4142 23.4142C57.0391 23.7893 56.5304 24 56 24Z" fill="white"/>
<path d="M55 20H31V22H55V20Z" fill="white"/>
<path d="M35 16H33V18H35V16Z" fill="white"/>
<path d="M55 16H37V18H55V16Z" fill="white"/>
<path d="M32 8H30V10H32V8Z" fill="white"/>
<path d="M36 8H34V10H36V8Z" fill="white"/>
<path d="M40 8H38V10H40V8Z" fill="white"/>
<path d="M33.293 41.293L31.293 43.293C31.1056 43.4805 31.0002 43.7348 31.0002 44C31.0002 44.2651 31.1056 44.5194 31.293 44.707L33.293 46.707L34.707 45.293L33.414 44L34.707 42.707L33.293 41.293Z" fill="white"/>
<path d="M40.707 46.707L42.707 44.707C42.8945 44.5194 42.9998 44.2651 42.9998 44C42.9998 43.7348 42.8945 43.4805 42.707 43.293L40.707 41.293L39.293 42.707L40.586 44L39.293 45.293L40.707 46.707Z" fill="white"/>
<path d="M37.0519 40.6838L35.0508 46.6839L36.9481 47.3167L38.9492 41.3166L37.0519 40.6838Z" fill="white"/>
<path d="M47 43H45V45H47V43Z" fill="white"/>
<path d="M33 49H31V51H33V49Z" fill="white"/>
<path d="M55 49H35V51H55V49Z" fill="white"/>
<path d="M51 43H49V45H51V43Z" fill="white"/>
<path d="M55 43H53V45H55V43Z" fill="white"/>
</svg>
