<svg width="56" height="56" viewBox="0 0 56 56" fill="none" xmlns="http://www.w3.org/2000/svg">
<path d="M26 20C26 20.5304 26.2107 21.0391 26.5858 21.4142C26.9609 21.7893 27.4696 22 28 22H31C31.2652 22 31.5196 22.1054 31.7071 22.2929C31.8946 22.4804 32 22.7348 32 23V25.132L36.445 22.168C36.6095 22.0587 36.8025 22.0003 37 22H54C54.5304 22 55.0391 21.7893 55.4142 21.4142C55.7893 21.0391 56 20.5304 56 20V12H26V20ZM35 14H53V16H35V14ZM31 14H33V16H31V14ZM29 18H53V20H29V18Z" fill="white"/>
<path d="M13 31C14.1046 31 15 30.1046 15 29C15 27.8954 14.1046 27 13 27C11.8954 27 11 27.8954 11 29C11 30.1046 11.8954 31 13 31Z" fill="white"/>
<path d="M54 37H37C36.8025 36.9997 36.6095 36.9412 36.445 36.832L32 33.868V36C32 36.2652 31.8946 36.5196 31.7071 36.7071C31.5196 36.8946 31.2652 37 31 37H28C27.4696 37 26.9609 37.2107 26.5858 37.5858C26.2107 37.9608 26 38.4695 26 39V49C26 49.5304 26.2107 50.0391 26.5858 50.4142C26.9609 50.7893 27.4696 51 28 51H54C54.5304 51 55.0391 50.7893 55.4142 50.4142C55.7893 50.0391 56 49.5304 56 49V39C56 38.4695 55.7893 37.9608 55.4142 37.5858C55.0391 37.2107 54.5304 37 54 37ZM47 41H49V43H47V41ZM43 41H45V43H43V41ZM37.293 40.707L38.707 39.293L40.707 41.293C40.8945 41.4805 40.9998 41.7348 40.9998 42C40.9998 42.2651 40.8945 42.5195 40.707 42.707L38.707 44.707L37.293 43.293L38.586 42L37.293 40.707ZM35.051 38.684L36.951 39.316L34.951 45.316L33.051 44.684L35.051 38.684ZM31 49H29V47H31V49ZM32.707 43.293L31.293 44.707L29.293 42.707C29.1055 42.5195 29.0002 42.2651 29.0002 42C29.0002 41.7348 29.1055 41.4805 29.293 41.293L31.293 39.293L32.707 40.707L31.414 42L32.707 43.293ZM53 49H33V47H53V49ZM53 43H51V41H53V43Z" fill="white"/>
<path d="M0 49.279L19 55.612V6.721L0 0.388V49.279ZM13 25C13.7911 25 14.5645 25.2346 15.2223 25.6741C15.8801 26.1136 16.3928 26.7384 16.6955 27.4693C16.9983 28.2002 17.0775 29.0044 16.9231 29.7804C16.7688 30.5563 16.3878 31.269 15.8284 31.8284C15.269 32.3878 14.5563 32.7688 13.7804 32.9231C13.0044 33.0775 12.2002 32.9983 11.4693 32.6955C10.7384 32.3928 10.1136 31.8801 9.67412 31.2223C9.2346 30.5645 9 29.7911 9 29C9 27.9391 9.42143 26.9217 10.1716 26.1716C10.9217 25.4214 11.9391 25 13 25Z" fill="white"/>
<path d="M30 35V32C30 31.819 30.0491 31.6413 30.1421 31.486C30.2352 31.3307 30.3686 31.2035 30.5282 31.1181C30.6879 31.0327 30.8677 30.9922 31.0485 31.001C31.2294 31.0098 31.4044 31.0675 31.555 31.168L33 32.132V26.868L31.555 27.832C31.4044 27.9325 31.2294 27.9902 31.0485 27.999C30.8677 28.0078 30.6879 27.9673 30.5282 27.8819C30.3686 27.7965 30.2352 27.6693 30.1421 27.514C30.0491 27.3587 30 27.181 30 27V24H28C26.9391 24 25.9217 23.5786 25.1716 22.8284C24.4214 22.0783 24 21.0609 24 20V6C24 4.93913 24.4214 3.92172 25.1716 3.17157C25.9217 2.42143 26.9391 2 28 2H33V0H5.16101L20.316 5.052C20.5151 5.11829 20.6882 5.24551 20.811 5.41564C20.9337 5.58578 20.9999 5.79021 21 6V49H24V39C24 37.9391 24.4214 36.9217 25.1716 36.1716C25.9217 35.4214 26.9391 35 28 35H30Z" fill="white"/>
<path d="M54 4H28C27.4696 4 26.9609 4.21071 26.5858 4.58579C26.2107 4.96086 26 5.46957 26 6V10H56V6C56 5.46957 55.7893 4.96086 55.4142 4.58579C55.0391 4.21071 54.5304 4 54 4ZM30 8H28V6H30V8ZM34 8H32V6H34V8ZM38 8H36V6H38V8Z" fill="white"/>
</svg>
