<svg width="130" height="130" viewBox="0 0 130 130" fill="none" xmlns="http://www.w3.org/2000/svg">
<path d="M45.0781 78.2812C45.0781 89.2848 62.9148 98.2031 84.9219 98.2031C106.929 98.2031 124.766 89.2848 124.766 78.2812C124.766 67.2777 106.929 58.3594 84.9219 58.3594C62.9148 58.3594 45.0781 67.2777 45.0781 78.2812Z" stroke="white" stroke-width="10" stroke-linecap="round" stroke-linejoin="round"/>
<path d="M45.0781 78.2812V104.844C45.0781 115.841 62.9148 124.766 84.9219 124.766C106.929 124.766 124.766 115.841 124.766 104.844V78.2812" stroke="white" stroke-width="10" stroke-linecap="round" stroke-linejoin="round"/>
<path d="M5.23438 25.1562C5.23438 32.275 12.8313 38.8492 25.1562 42.4086C37.4812 45.968 52.675 45.968 65 42.4086C77.325 38.8492 84.9219 32.275 84.9219 25.1562C84.9219 18.0375 77.325 11.4633 65 7.90391C52.675 4.34453 37.4812 4.34453 25.1562 7.90391C12.8313 11.4633 5.23438 18.0375 5.23438 25.1562Z" stroke="white" stroke-width="10" stroke-linecap="round" stroke-linejoin="round"/>
<path d="M5.23438 25.1562V91.5625C5.23438 97.4594 10.3609 101.191 18.5156 104.844" stroke="white" stroke-width="10" stroke-linecap="round" stroke-linejoin="round"/>
<path d="M5.23438 58.3594C5.23438 64.2563 10.3609 67.9883 18.5156 71.6406" stroke="white" stroke-width="10" stroke-linecap="round" stroke-linejoin="round"/>
</svg>
