<svg width="76" height="69" viewBox="0 0 76 69" fill="none" xmlns="http://www.w3.org/2000/svg">
<path d="M57.0938 18.9375V8.39062C57.0938 7.45822 56.7234 6.56401 56.064 5.9047C55.4047 5.2454 54.5105 4.875 53.5781 4.875H7.875C6.9426 4.875 6.04839 5.2454 5.38908 5.9047C4.72977 6.56401 4.35938 7.45822 4.35938 8.39062V50.5781C4.35938 51.5105 4.72977 52.4047 5.38908 53.064C6.04839 53.7234 6.9426 54.0938 7.875 54.0938H32.4844" stroke="white" stroke-width="8" stroke-linecap="round" stroke-linejoin="round"/>
<path d="M64.125 64.6406L71.1562 57.6094L64.125 50.5781" stroke="white" stroke-width="8" stroke-linecap="round" stroke-linejoin="round"/>
<path d="M53.5781 50.5781L46.5469 57.6094L53.5781 64.6406" stroke="white" stroke-width="8" stroke-linecap="round" stroke-linejoin="round"/>
<path d="M50.0625 22.4531H57.0938" stroke="white" stroke-width="8" stroke-linecap="round" stroke-linejoin="round"/>
<path d="M40 46.3672V23.5156C40 22.5832 40.3704 21.689 41.0297 21.0297C41.689 20.3704 42.5832 20 43.5156 20H64.6094C65.5418 20 66.436 20.3704 67.0953 21.0297C67.7546 21.689 68.125 22.5832 68.125 23.5156V37.5781" stroke="white" stroke-width="8" stroke-linecap="round" stroke-linejoin="round"/>
</svg>
