<svg width="111" height="124" viewBox="0 0 111 124" fill="none" xmlns="http://www.w3.org/2000/svg">
<path d="M39.875 118.25H18C14.6848 118.25 11.5054 116.933 9.16116 114.589C6.81696 112.245 5.5 109.065 5.5 105.75V18.25C5.5 14.9348 6.81696 11.7554 9.16116 9.41117C11.5054 7.06696 14.6848 5.75 18 5.75H68C71.3152 5.75 74.4946 7.06696 76.8388 9.41117C79.183 11.7554 80.5 14.9348 80.5 18.25V68.25" stroke="white" stroke-width="10" stroke-linecap="round" stroke-linejoin="round"/>
<path d="M93 118.25L105.5 105.75L93 93.25" stroke="white" stroke-width="10" stroke-linecap="round" stroke-linejoin="round"/>
<path d="M74.25 93.25L61.75 105.75L74.25 118.25" stroke="white" stroke-width="10" stroke-linecap="round" stroke-linejoin="round"/>
<path d="M36.75 12H49.25" stroke="white" stroke-width="10" stroke-linecap="round" stroke-linejoin="round"/>
<path d="M43 93.25V93.3125" stroke="white" stroke-width="10" stroke-linecap="round" stroke-linejoin="round"/>
</svg>
